<?xml version="1.0" encoding="UTF-8"?>
<svg xmlns="http://www.w3.org/2000/svg" xmlns:xlink="http://www.w3.org/1999/xlink" width="px" height="px" viewBox="0 0 192 192" version="1.1">
<g id="surface1">
<path style=" stroke:none;fill-rule:nonzero;fill:rgb(14.117647%,16.078431%,21.960784%);fill-opacity:1;" d="M 45 0 L 147 0 C 171.851562 0 192 20.148438 192 45 L 192 147 C 192 171.851562 171.851562 192 147 192 L 45 192 C 20.148438 192 0 171.851562 0 147 L 0 45 C 0 20.148438 20.148438 0 45 0 Z M 45 0 "/>
<path style=" stroke:none;fill-rule:nonzero;fill:rgb(88.627451%,19.607843%,21.568627%);fill-opacity:1;" d="M 25.6875 45.84375 L 95.492188 21 L 167.136719 45.460938 L 155.558594 137.773438 L 95.492188 171 L 36.402344 138.207031 Z M 25.6875 45.84375 "/>
<path style=" stroke:none;fill-rule:nonzero;fill:rgb(70.980392%,18.039216%,19.215686%);fill-opacity:1;" d="M 167.136719 45.460938 L 95.492188 21 L 95.492188 171 L 155.558594 137.773438 Z M 167.136719 45.460938 "/>
<path style=" stroke:none;fill-rule:nonzero;fill:rgb(100%,100%,100%);fill-opacity:1;" d="M 95.601562 38.53125 L 52.101562 135.28125 L 68.335938 134.953125 L 77.101562 113.089844 L 116.007812 113.089844 L 125.53125 135.121094 L 141.007812 135.449219 Z M 95.710938 69.589844 L 110.429688 100.328125 L 82.875 100.328125 L 95.75 69.589844 Z M 95.710938 69.589844 "/>
</g>
</svg>
