<?xml version="1.0" encoding="UTF-8"?>
<svg xmlns="http://www.w3.org/2000/svg" xmlns:xlink="http://www.w3.org/1999/xlink" width="px" height="px" viewBox="0 0 192 192" version="1.1">
<g id="surface1">
<path style=" stroke:none;fill-rule:nonzero;fill:rgb(14.117647%,16.078431%,21.960784%);fill-opacity:1;" d="M 45 0 L 147 0 C 171.851562 0 192 20.148438 192 45 L 192 147 C 192 171.851562 171.851562 192 147 192 L 45 192 C 20.148438 192 0 171.851562 0 147 L 0 45 C 0 20.148438 20.148438 0 45 0 Z M 45 0 "/>
<path style=" stroke:none;fill-rule:nonzero;fill:rgb(87.843137%,13.72549%,30.588235%);fill-opacity:1;" d="M 110.046875 13.5 C 108.878906 13.5 107.796875 13.757812 106.792969 14.097656 C 108.921875 15.554688 110.089844 17.476562 110.671875 19.660156 C 110.714844 19.960938 110.796875 20.171875 110.839844 20.472656 C 110.878906 20.730469 110.921875 20.988281 110.921875 21.242188 C 111.089844 25.007812 109.960938 25.476562 109.171875 27.703125 C 107.960938 30.570312 108.296875 33.648438 109.753906 36.128906 C 109.878906 36.429688 110.046875 36.773438 110.253906 37.070312 C 108.671875 26.25 117.464844 24.621094 119.09375 21.242188 C 119.21875 18.292969 116.839844 16.324219 114.964844 14.953125 C 113.171875 13.84375 111.546875 13.5 110.046875 13.5 Z M 123.304688 15.9375 C 123.136719 16.921875 123.261719 16.664062 123.21875 17.179688 C 123.179688 17.519531 123.179688 17.949219 123.136719 18.292969 C 123.050781 18.632812 122.96875 18.976562 122.84375 19.316406 C 122.761719 19.660156 122.636719 20.003906 122.511719 20.34375 C 122.34375 20.6875 122.21875 20.988281 122.050781 21.328125 C 121.925781 21.5 121.84375 21.671875 121.71875 21.84375 C 121.636719 21.96875 121.550781 22.097656 121.46875 22.226562 C 121.261719 22.527344 121.050781 22.824219 120.84375 23.082031 C 120.59375 23.339844 120.382812 23.636719 120.09375 23.851562 C 120.09375 23.894531 120.09375 23.894531 120.09375 23.894531 C 119.84375 24.109375 119.59375 24.367188 119.300781 24.578125 C 118.425781 25.265625 117.425781 25.777344 116.507812 26.417969 C 116.214844 26.632812 115.925781 26.804688 115.675781 27.0625 C 115.382812 27.273438 115.132812 27.488281 114.882812 27.746094 C 114.589844 28.003906 114.382812 28.257812 114.132812 28.558594 C 113.921875 28.816406 113.671875 29.113281 113.507812 29.414062 C 113.296875 29.714844 113.089844 30.011719 112.921875 30.3125 C 112.753906 30.65625 112.632812 30.953125 112.464844 31.296875 C 112.339844 31.636719 112.214844 31.9375 112.132812 32.28125 C 112.003906 32.664062 111.921875 33.007812 111.839844 33.351562 C 111.796875 33.519531 111.796875 33.734375 111.753906 33.90625 C 111.714844 34.078125 111.714844 34.246094 111.671875 34.417969 C 111.671875 34.761719 111.628906 35.144531 111.628906 35.488281 C 111.628906 35.746094 111.628906 36 111.671875 36.257812 C 111.671875 36.601562 111.714844 36.941406 111.796875 37.328125 C 111.839844 37.671875 111.921875 38.011719 112.003906 38.355469 C 112.132812 38.695312 112.214844 39.039062 112.339844 39.382812 C 112.421875 39.59375 112.546875 39.808594 112.632812 39.980469 L 103.042969 36.171875 C 101.417969 35.703125 99.832031 35.273438 98.207031 34.890625 C 97.332031 34.675781 96.457031 34.460938 95.582031 34.246094 C 93.078125 33.734375 90.535156 33.351562 87.992188 33.09375 C 87.910156 33.09375 87.871094 33.050781 87.785156 33.050781 C 85.285156 32.792969 82.824219 32.664062 80.324219 32.664062 C 78.488281 32.664062 76.65625 32.75 74.863281 32.878906 C 72.320312 33.050781 69.777344 33.390625 67.234375 33.820312 C 66.609375 33.90625 65.984375 34.035156 65.359375 34.164062 C 64.066406 34.417969 62.816406 34.71875 61.605469 35.019531 C 60.980469 35.1875 60.355469 35.359375 59.730469 35.53125 C 59.105469 35.789062 58.519531 36.085938 57.9375 36.34375 C 57.480469 36.558594 57.019531 36.773438 56.5625 36.984375 C 56.480469 37.027344 56.394531 37.027344 56.351562 37.070312 C 55.9375 37.285156 55.5625 37.457031 55.1875 37.671875 C 55.0625 37.714844 54.976562 37.753906 54.894531 37.796875 C 54.4375 38.011719 53.976562 38.269531 53.601562 38.484375 C 53.308594 38.613281 53.019531 38.78125 52.769531 38.910156 C 52.644531 38.996094 52.476562 39.082031 52.394531 39.125 C 52.019531 39.339844 51.644531 39.550781 51.308594 39.765625 C 50.933594 39.980469 50.601562 40.195312 50.308594 40.40625 C 50.015625 40.621094 49.726562 40.792969 49.476562 41.007812 C 49.433594 41.050781 49.390625 41.050781 49.351562 41.09375 C 49.101562 41.261719 48.808594 41.476562 48.558594 41.691406 C 48.558594 41.691406 48.515625 41.734375 48.476562 41.777344 C 48.265625 41.949219 48.058594 42.117188 47.847656 42.289062 C 47.765625 42.332031 47.683594 42.417969 47.597656 42.460938 C 47.390625 42.632812 47.183594 42.847656 46.972656 43.015625 C 46.933594 43.101562 46.847656 43.144531 46.808594 43.1875 C 46.558594 43.445312 46.308594 43.660156 46.058594 43.917969 C 46.015625 43.917969 46.015625 43.957031 45.972656 44 C 45.722656 44.214844 45.472656 44.472656 45.222656 44.730469 C 45.179688 44.773438 45.179688 44.8125 45.140625 44.8125 C 44.929688 45.027344 44.722656 45.242188 44.515625 45.5 C 44.429688 45.585938 44.304688 45.667969 44.222656 45.753906 C 44.015625 46.011719 43.765625 46.269531 43.515625 46.527344 C 43.472656 46.609375 43.390625 46.652344 43.347656 46.738281 C 43.015625 47.082031 42.722656 47.421875 42.386719 47.765625 C 42.347656 47.808594 42.304688 47.851562 42.261719 47.894531 C 41.597656 48.621094 40.886719 49.347656 40.136719 49.992188 C 39.386719 50.675781 38.59375 51.316406 37.804688 51.871094 C 36.96875 52.472656 36.175781 52.984375 35.300781 53.5 C 34.46875 53.96875 33.59375 54.398438 32.675781 54.78125 C 31.800781 55.167969 30.882812 55.507812 29.964844 55.808594 C 28.214844 56.195312 26.421875 56.921875 24.878906 57.050781 C 24.546875 57.050781 24.171875 57.132812 23.835938 57.175781 C 23.460938 57.261719 23.128906 57.347656 22.796875 57.433594 C 22.460938 57.5625 22.128906 57.691406 21.796875 57.820312 C 21.460938 57.949219 21.128906 58.117188 20.792969 58.289062 C 20.503906 58.503906 20.167969 58.675781 19.878906 58.886719 C 19.585938 59.101562 19.292969 59.359375 19.042969 59.617188 C 18.75 59.828125 18.460938 60.128906 18.210938 60.386719 C 17.960938 60.683594 17.710938 60.941406 17.5 61.242188 C 17.292969 61.582031 17.042969 61.882812 16.875 62.226562 C 16.667969 62.523438 16.460938 62.867188 16.292969 63.210938 C 16.125 63.59375 15.957031 63.9375 15.832031 64.320312 C 15.707031 64.664062 15.582031 65.046875 15.457031 65.433594 C 15.375 65.777344 15.292969 66.117188 15.25 66.460938 C 15.25 66.503906 15.207031 66.546875 15.207031 66.589844 C 15.125 66.972656 15.125 67.488281 15.082031 67.742188 C 15.042969 68.042969 15 68.300781 15 68.597656 C 15 68.769531 15 68.984375 15.042969 69.15625 C 15.082031 69.457031 15.125 69.710938 15.207031 69.96875 C 15.292969 70.226562 15.375 70.480469 15.5 70.738281 C 15.5 70.78125 15.5 70.78125 15.5 70.78125 C 15.625 71.039062 15.792969 71.292969 15.957031 71.550781 C 16.125 71.808594 16.292969 72.066406 16.5 72.320312 C 16.710938 72.535156 16.960938 72.792969 17.210938 73.003906 C 17.460938 73.261719 17.710938 73.476562 18 73.691406 C 19.003906 74.589844 19.253906 74.886719 20.542969 75.570312 C 20.753906 75.703125 20.960938 75.785156 21.210938 75.914062 C 21.253906 75.914062 21.292969 75.957031 21.335938 75.957031 C 21.335938 76.042969 21.335938 76.085938 21.378906 76.171875 C 21.421875 76.511719 21.503906 76.855469 21.585938 77.199219 C 21.671875 77.582031 21.796875 77.925781 21.921875 78.226562 C 22.046875 78.480469 22.128906 78.738281 22.253906 78.996094 C 22.296875 79.082031 22.335938 79.167969 22.378906 79.210938 C 22.546875 79.550781 22.710938 79.851562 22.878906 80.148438 C 23.085938 80.449219 23.296875 80.75 23.503906 81.046875 C 23.710938 81.304688 23.964844 81.605469 24.214844 81.859375 C 24.464844 82.117188 24.714844 82.332031 25.003906 82.589844 C 25.003906 82.589844 25.046875 82.632812 25.089844 82.632812 C 25.339844 82.84375 25.589844 83.058594 25.839844 83.230469 C 26.128906 83.445312 26.421875 83.617188 26.757812 83.785156 C 27.046875 83.957031 27.382812 84.128906 27.714844 84.257812 C 27.964844 84.386719 28.257812 84.472656 28.546875 84.554688 C 28.589844 84.597656 28.632812 84.597656 28.714844 84.640625 C 28.882812 84.683594 29.089844 84.726562 29.257812 84.769531 C 29.132812 87.082031 29.089844 89.261719 29.425781 90.03125 C 29.800781 90.886719 31.632812 88.277344 33.46875 85.285156 C 33.21875 88.234375 33.050781 91.699219 33.46875 92.726562 C 33.925781 93.796875 36.425781 90.460938 38.59375 86.78125 C 68.152344 79.765625 95.121094 100.726562 97.957031 130.332031 C 97.414062 125.710938 91.871094 123.144531 89.328125 123.785156 C 88.078125 126.949219 85.953125 131.015625 82.53125 133.539062 C 82.824219 130.714844 82.699219 127.804688 82.117188 124.984375 C 81.199219 128.917969 79.40625 132.597656 76.945312 135.761719 C 72.988281 136.0625 69.027344 134.09375 66.941406 131.144531 C 66.777344 131.015625 66.734375 130.757812 66.609375 130.585938 C 66.484375 130.285156 66.359375 129.988281 66.273438 129.6875 C 66.148438 129.390625 66.066406 129.089844 66.023438 128.789062 C 65.984375 128.492188 65.984375 128.191406 65.984375 127.847656 C 65.984375 127.636719 65.984375 127.421875 65.984375 127.207031 C 66.023438 126.90625 66.109375 126.609375 66.191406 126.308594 C 66.273438 126.007812 66.359375 125.710938 66.484375 125.410156 C 66.652344 125.109375 66.777344 124.8125 66.984375 124.511719 C 67.691406 122.457031 67.691406 120.789062 66.398438 119.804688 C 66.148438 119.636719 65.898438 119.507812 65.609375 119.378906 C 65.441406 119.335938 65.234375 119.25 65.066406 119.207031 C 64.941406 119.164062 64.859375 119.121094 64.734375 119.078125 C 64.441406 118.992188 64.148438 118.90625 63.855469 118.867188 C 63.566406 118.78125 63.273438 118.738281 62.980469 118.738281 C 62.691406 118.695312 62.355469 118.652344 62.066406 118.652344 C 61.855469 118.652344 61.648438 118.695312 61.441406 118.695312 C 61.105469 118.695312 60.8125 118.738281 60.523438 118.824219 C 60.230469 118.867188 59.9375 118.90625 59.648438 118.992188 C 59.355469 119.078125 59.0625 119.164062 58.773438 119.292969 C 58.480469 119.421875 58.230469 119.550781 57.9375 119.679688 C 57.6875 119.804688 57.4375 119.976562 57.144531 120.105469 C 47.433594 126.609375 53.226562 141.835938 59.855469 146.242188 C 57.355469 146.714844 54.8125 147.269531 54.101562 147.828125 C 54.0625 147.871094 54.019531 147.914062 54.019531 147.914062 C 55.8125 149.023438 57.6875 149.964844 59.648438 150.777344 C 62.316406 151.675781 65.148438 152.488281 66.402344 152.832031 L 66.402344 152.875 C 69.859375 153.601562 73.363281 153.859375 76.90625 153.644531 C 95.371094 152.320312 110.503906 137.902344 113.257812 118.90625 C 113.339844 119.292969 113.421875 119.636719 113.507812 120.019531 C 113.632812 120.789062 113.796875 121.601562 113.882812 122.414062 C 113.882812 122.414062 113.882812 122.414062 113.882812 122.460938 C 113.964844 122.84375 114.007812 123.230469 114.046875 123.570312 C 114.046875 123.65625 114.046875 123.699219 114.046875 123.742188 C 114.089844 124.128906 114.132812 124.511719 114.132812 124.855469 C 114.175781 125.324219 114.214844 125.796875 114.214844 126.265625 C 114.214844 126.480469 114.214844 126.695312 114.214844 126.949219 C 114.214844 127.164062 114.257812 127.421875 114.257812 127.636719 C 114.257812 127.890625 114.214844 128.148438 114.214844 128.40625 C 114.214844 128.617188 114.214844 128.832031 114.214844 129.003906 C 114.214844 129.304688 114.175781 129.558594 114.175781 129.859375 C 114.175781 130.03125 114.175781 130.203125 114.132812 130.414062 C 114.132812 130.714844 114.089844 131.015625 114.089844 131.355469 C 114.046875 131.484375 114.046875 131.613281 114.046875 131.742188 C 114.007812 132.085938 113.964844 132.382812 113.921875 132.726562 C 113.921875 132.855469 113.921875 132.984375 113.882812 133.113281 C 113.839844 133.539062 113.757812 133.921875 113.714844 134.351562 L 113.714844 134.4375 C 113.632812 134.820312 113.546875 135.25 113.464844 135.636719 C 113.464844 135.679688 113.464844 135.722656 113.464844 135.761719 C 113.382812 136.148438 113.296875 136.535156 113.214844 136.917969 C 113.214844 136.960938 113.171875 137.046875 113.171875 137.089844 C 113.089844 137.476562 113.007812 137.859375 112.882812 138.246094 C 112.882812 138.289062 112.882812 138.328125 112.882812 138.375 C 112.753906 138.800781 112.628906 139.1875 112.546875 139.570312 C 112.507812 139.613281 112.507812 139.65625 112.507812 139.65625 C 112.378906 140.085938 112.253906 140.511719 112.128906 140.941406 C 111.964844 141.367188 111.839844 141.753906 111.671875 142.179688 C 111.503906 142.609375 111.378906 143.035156 111.214844 143.421875 C 111.046875 143.847656 110.878906 144.234375 110.714844 144.660156 L 110.671875 144.660156 C 110.503906 145.046875 110.335938 145.472656 110.128906 145.859375 C 110.085938 145.988281 110.046875 146.074219 110.003906 146.160156 C 109.960938 146.203125 109.960938 146.246094 109.921875 146.289062 C 107.210938 151.890625 103.210938 156.8125 98.207031 160.660156 C 97.875 160.875 97.539062 161.132812 97.207031 161.390625 C 97.125 161.472656 97 161.515625 96.914062 161.601562 C 96.621094 161.816406 96.332031 162.03125 95.996094 162.242188 L 96.121094 162.5 L 96.164062 162.5 C 96.746094 162.414062 97.332031 162.328125 97.914062 162.242188 L 97.957031 162.242188 C 99.039062 162.074219 100.125 161.859375 101.207031 161.644531 C 101.5 161.601562 101.832031 161.515625 102.125 161.429688 C 102.332031 161.386719 102.5 161.347656 102.710938 161.300781 C 103 161.257812 103.292969 161.175781 103.585938 161.132812 C 103.835938 161.046875 104.085938 161.003906 104.335938 160.917969 C 108.503906 159.890625 112.546875 158.480469 116.425781 156.8125 C 109.796875 166.09375 100.917969 173.582031 90.535156 178.5 C 95.332031 178.15625 100.125 177.34375 104.75 175.976562 C 121.550781 170.886719 135.683594 159.292969 144.144531 143.675781 C 142.4375 153.558594 138.601562 162.972656 132.933594 171.183594 C 136.976562 168.445312 140.6875 165.28125 144.0625 161.6875 C 153.402344 151.679688 159.527344 138.972656 161.613281 125.324219 C 163.03125 132.085938 163.449219 139.058594 162.820312 145.945312 C 192.921875 102.867188 165.324219 58.203125 153.777344 46.441406 C 153.734375 46.355469 153.691406 46.3125 153.691406 46.226562 C 153.652344 46.269531 153.652344 46.269531 153.652344 46.3125 C 153.652344 46.269531 153.652344 46.269531 153.609375 46.226562 C 153.609375 46.738281 153.566406 47.253906 153.527344 47.765625 C 153.402344 48.75 153.277344 49.691406 153.109375 50.632812 C 152.898438 51.574219 152.652344 52.515625 152.398438 53.457031 C 152.109375 54.355469 151.773438 55.296875 151.398438 56.195312 C 151.023438 57.050781 150.609375 57.949219 150.148438 58.804688 C 149.691406 59.617188 149.191406 60.472656 148.648438 61.242188 C 148.105469 62.054688 147.523438 62.824219 146.9375 63.550781 C 146.3125 64.320312 145.648438 65.007812 144.980469 65.691406 C 144.5625 66.074219 144.1875 66.417969 143.769531 66.761719 C 143.4375 67.058594 143.144531 67.316406 142.8125 67.617188 C 142.0625 68.214844 141.3125 68.769531 140.476562 69.285156 C 139.6875 69.796875 138.851562 70.3125 138.019531 70.738281 C 137.144531 71.167969 136.265625 71.550781 135.390625 71.9375 C 134.515625 72.277344 133.597656 72.578125 132.683594 72.835938 C 131.765625 73.09375 130.804688 73.304688 129.890625 73.476562 C 128.929688 73.648438 127.972656 73.734375 127.054688 73.820312 C 126.386719 73.863281 125.71875 73.90625 125.054688 73.90625 C 124.09375 73.90625 123.136719 73.820312 122.21875 73.734375 C 121.261719 73.648438 120.300781 73.519531 119.382812 73.304688 C 118.425781 73.132812 117.507812 72.878906 116.589844 72.578125 L 116.550781 72.578125 C 117.464844 72.492188 118.382812 72.40625 119.300781 72.234375 C 120.257812 72.066406 121.175781 71.851562 122.09375 71.59375 C 123.011719 71.335938 123.929688 71.039062 124.804688 70.695312 C 125.71875 70.355469 126.59375 69.925781 127.429688 69.5 C 128.304688 69.070312 129.097656 68.601562 129.929688 68.085938 C 130.722656 67.53125 131.515625 66.972656 132.265625 66.375 C 133.015625 65.777344 133.722656 65.136719 134.390625 64.449219 C 135.101562 63.808594 135.726562 63.082031 136.351562 62.355469 C 136.976562 61.585938 137.558594 60.8125 138.101562 60.042969 C 138.183594 59.914062 138.269531 59.746094 138.351562 59.617188 C 138.769531 58.933594 139.183594 58.246094 139.5625 57.5625 C 140.019531 56.707031 140.4375 55.851562 140.8125 54.953125 C 141.1875 54.054688 141.519531 53.15625 141.8125 52.214844 C 142.101562 51.316406 142.3125 50.375 142.519531 49.433594 C 142.6875 48.449219 142.855469 47.511719 142.9375 46.570312 C 143.019531 45.585938 143.105469 44.601562 143.105469 43.660156 C 143.105469 42.976562 143.0625 42.289062 143.019531 41.605469 C 142.9375 40.621094 142.8125 39.679688 142.6875 38.738281 C 142.519531 37.757812 142.3125 36.816406 142.0625 35.875 C 141.769531 34.976562 141.476562 34.035156 141.144531 33.136719 C 140.8125 32.238281 140.394531 31.339844 139.976562 30.484375 C 139.519531 29.628906 139.058594 28.773438 138.558594 27.960938 C 138.019531 27.148438 137.476562 26.375 136.894531 25.605469 C 136.265625 24.878906 135.640625 24.152344 134.976562 23.425781 C 134.640625 23.082031 134.265625 22.699219 133.890625 22.355469 C 132.015625 20.859375 130.054688 19.445312 128.097656 18.164062 C 127.804688 17.992188 127.554688 17.863281 127.261719 17.734375 C 125.886719 16.835938 124.59375 16.367188 123.304688 15.9375 Z M 123.304688 15.9375 "/>
</g>
</svg>
