<?xml version="1.0" encoding="UTF-8"?>
<svg xmlns="http://www.w3.org/2000/svg" xmlns:xlink="http://www.w3.org/1999/xlink" width="px" height="px" viewBox="0 0 192 192" version="1.1">
<g id="surface1">
<path style=" stroke:none;fill-rule:nonzero;fill:rgb(14.117647%,16.078431%,21.960784%);fill-opacity:1;" d="M 45 0 L 147 0 C 171.851562 0 192 20.148438 192 45 L 192 147 C 192 171.851562 171.851562 192 147 192 L 45 192 C 20.148438 192 0 171.851562 0 147 L 0 45 C 0 20.148438 20.148438 0 45 0 Z M 45 0 "/>
<path style=" stroke:none;fill-rule:nonzero;fill:rgb(20%,40.392157%,56.862745%);fill-opacity:1;" d="M 152.609375 111.515625 C 137.371094 114.660156 136.261719 109.496094 136.261719 109.496094 C 152.363281 85.605469 159.097656 55.285156 153.285156 47.867188 C 137.445312 27.617188 110.015625 37.195312 109.558594 37.445312 L 109.410156 37.472656 C 106.058594 36.800781 102.65625 36.445312 99.238281 36.410156 C 92.339844 36.304688 87.109375 38.21875 83.132812 41.230469 C 83.132812 41.230469 34.207031 21.078125 36.484375 66.582031 C 36.96875 76.261719 50.351562 139.882812 66.332031 120.632812 C 72.21875 113.558594 77.859375 107.613281 77.859375 107.613281 C 80.652344 109.472656 84.011719 110.425781 87.53125 110.082031 L 87.804688 109.847656 C 87.722656 110.761719 87.761719 111.679688 87.914062 112.582031 C 83.804688 117.179688 85.015625 117.984375 76.789062 119.679688 C 68.46875 121.394531 73.359375 124.445312 76.546875 125.246094 C 80.417969 126.21875 89.371094 127.589844 95.425781 119.121094 L 95.183594 120.085938 C 96.796875 121.378906 97.925781 128.484375 97.734375 134.929688 C 97.546875 141.375 97.417969 145.792969 98.683594 149.253906 C 99.949219 152.710938 101.214844 160.484375 112.027344 158.21875 C 121.058594 156.28125 125.738281 151.257812 126.394531 142.894531 C 126.859375 136.945312 127.902344 137.820312 127.976562 132.503906 L 128.820312 129.984375 C 129.785156 121.914062 128.980469 119.316406 134.542969 120.527344 L 135.898438 120.648438 C 139.996094 120.835938 145.359375 119.992188 148.503906 118.527344 C 155.277344 115.386719 159.296875 110.132812 152.617188 111.515625 Z M 152.609375 111.515625 "/>
<path style="fill:none;stroke-width:5.034;stroke-linecap:round;stroke-linejoin:round;stroke:rgb(100%,100%,100%);stroke-opacity:1;stroke-miterlimit:4;" d="M 146.067708 48.59375 C 143.817708 49.296875 182.380208 34.5 204.302083 62.505208 C 212.036458 72.395833 203.072917 112.828125 181.604167 144.677083 M 128.098958 153.786458 C 127.536458 173.796875 128.239583 193.947917 130.192708 198.786458 C 132.145833 203.619792 136.34375 213.197917 150.765625 210.119792 C 162.8125 207.536458 167.197917 202.536458 169.098958 191.505208 L 173.546875 156.229167 Z M 110.817708 53.46875 C 110.817708 53.46875 45.536458 26.776042 48.572917 87.453125 C 49.223958 100.359375 67.067708 185.1875 88.369792 159.520833 C 96.145833 150.145833 103.182292 142.8125 103.182292 142.8125 Z M 110.817708 53.46875 " transform="matrix(0.75,0,0,0.75,0,0)"/>
<path style="fill:none;stroke-width:5.034;stroke-linecap:round;stroke-linejoin:bevel;stroke:rgb(100%,100%,100%);stroke-opacity:1;stroke-miterlimit:4;" d="M 181.614583 144.661458 C 181.614583 144.661458 183.020833 151.557292 203.411458 147.348958 C 212.317708 145.510417 206.953125 152.510417 197.927083 156.703125 C 190.515625 160.145833 173.890625 161.026042 173.619792 156.28125 C 172.916667 144.010417 182.364583 147.739583 181.682292 144.661458 C 181.0625 141.895833 176.833333 139.182292 174.046875 132.401042 C 171.609375 126.494792 140.578125 81.145833 182.65625 87.875 C 184.203125 87.557292 171.6875 47.796875 132.3125 47.21875 C 92.9375 46.640625 94.182292 95.630208 94.182292 95.630208 " transform="matrix(0.75,0,0,0.75,0,0)"/>
<path style="fill:none;stroke-width:5.034;stroke-linecap:butt;stroke-linejoin:round;stroke:rgb(100%,100%,100%);stroke-opacity:1;stroke-miterlimit:4;" d="M 117.078125 148.869792 C 111.59375 155 113.213542 156.078125 102.244792 158.333333 C 91.151042 160.619792 97.671875 164.6875 101.921875 165.760417 C 107.083333 167.052083 119.020833 168.880208 127.09375 157.578125 C 129.552083 154.135417 127.078125 148.651042 123.703125 147.260417 C 122.072917 146.583333 119.890625 145.739583 117.09375 148.875 Z M 117.078125 148.869792 " transform="matrix(0.75,0,0,0.75,0,0)"/>
<path style="fill:none;stroke-width:5.034;stroke-linecap:round;stroke-linejoin:round;stroke:rgb(100%,100%,100%);stroke-opacity:1;stroke-miterlimit:4;" d="M 116.723958 148.760417 C 116.161458 145.15625 117.901042 140.875 119.765625 135.854167 C 122.5625 128.333333 129.020833 120.807292 123.859375 96.921875 C 120.010417 79.135417 94.1875 93.21875 94.1875 95.630208 C 94.1875 98.041667 95.354167 107.864583 93.765625 119.286458 C 91.677083 134.208333 103.255208 146.822917 116.588542 145.536458 " transform="matrix(0.75,0,0,0.75,0,0)"/>
<path style="fill-rule:nonzero;fill:rgb(100%,100%,100%);fill-opacity:1;stroke-width:1.68;stroke-linecap:butt;stroke-linejoin:miter;stroke:rgb(100%,100%,100%);stroke-opacity:1;stroke-miterlimit:4;" d="M 110.578125 95.270833 C 110.458333 96.09375 112.088542 98.291667 114.203125 98.588542 C 116.322917 98.885417 118.130208 97.166667 118.25 96.338542 C 118.364583 95.510417 116.734375 94.609375 114.619792 94.3125 C 112.505208 94.015625 110.682292 94.453125 110.578125 95.270833 Z M 110.578125 95.270833 " transform="matrix(0.75,0,0,0.75,0,0)"/>
<path style="fill-rule:nonzero;fill:rgb(100%,100%,100%);fill-opacity:1;stroke-width:0.837;stroke-linecap:butt;stroke-linejoin:miter;stroke:rgb(100%,100%,100%);stroke-opacity:1;stroke-miterlimit:4;" d="M 175.010417 93.588542 C 175.125 94.411458 173.5 96.614583 171.385417 96.90625 C 169.265625 97.203125 167.442708 95.489583 167.338542 94.65625 C 167.234375 93.828125 168.854167 92.927083 170.96875 92.635417 C 173.083333 92.338542 174.90625 92.776042 175.010417 93.588542 Z M 175.010417 93.588542 " transform="matrix(0.75,0,0,0.75,0,0)"/>
<path style="fill:none;stroke-width:5.034;stroke-linecap:round;stroke-linejoin:round;stroke:rgb(100%,100%,100%);stroke-opacity:1;stroke-miterlimit:4;" d="M 182.578125 87.885417 C 182.927083 94.354167 181.182292 98.75 180.958333 105.635417 C 180.635417 115.630208 185.729167 127.078125 178.057292 138.541667 " transform="matrix(0.75,0,0,0.75,0,0)"/>
</g>
</svg>
