<?xml version="1.0" encoding="UTF-8"?>
<svg xmlns="http://www.w3.org/2000/svg" xmlns:xlink="http://www.w3.org/1999/xlink" width="px" height="px" viewBox="0 0 192 192" version="1.1">
<g id="surface1">
<path style=" stroke:none;fill-rule:nonzero;fill:rgb(40.392157%,49.411765%,92.156863%);fill-opacity:1;" d="M 45 0 L 147 0 C 171.851562 0 192 20.148438 192 45 L 192 147 C 192 171.851562 171.851562 192 147 192 L 45 192 C 20.148438 192 0 171.851562 0 147 L 0 45 C 0 20.148438 20.148438 0 45 0 Z M 45 0 "/>
<path style=" stroke:none;fill-rule:evenodd;fill:rgb(96.862745%,98.039216%,98.823529%);fill-opacity:1;" d="M 39.492188 123.886719 C 38.054688 121.621094 38.035156 118.730469 39.4375 116.441406 L 92.28125 30.238281 C 95.222656 25.445312 102.320312 25.863281 104.671875 30.972656 L 152.949219 135.695312 C 154.742188 139.582031 152.679688 144.152344 148.582031 145.382812 L 73.484375 167.910156 C 70.460938 168.816406 67.207031 167.601562 65.515625 164.9375 Z M 98.378906 55.445312 C 98.890625 52.910156 102.363281 52.542969 103.390625 54.917969 L 136.691406 131.972656 C 137.316406 133.421875 136.539062 135.097656 135.023438 135.546875 L 83.136719 151.039062 C 81.230469 151.605469 79.402344 149.941406 79.792969 147.988281 Z M 98.378906 55.445312 "/>
</g>
</svg>
